# xmcd
#
# Track frame offsets:
#  150
#  24531
#  45074
#  68214
#  96509
#  116168
#  139319
#  161019
#  180452
#  212552
#  238200
#  262142
#  271689
#  311657
#
# Disc length: 4545 seconds
#
# Revision: 0
# Processed by: cddbd v1.5.1PL2 Copyright (c) Steve Scherf et al.
# Submitted via: Collectorz.com_Music_Collector 6.9
#
DISCID=ca11bf0e
DTITLE=Bruce Springsteen - Cool Rockin' Daddy In The Usa - Born In The Usa Tour Compilation - Disc 4
DYEAR=1985
DGENRE=
TTITLE0=Nebraska
TTITLE1=No Surrender (Acoustic)
TTITLE2=No Surrender (Full Band)
TTITLE3=Intro To Open All Night
TTITLE4=Open All Night
TTITLE5=Out In The Street
TTITLE6=Intro To Pink Cadillac
TTITLE7=Pink Cadillac
TTITLE8=Point Blank
TTITLE9=The Promised Land
TTITLE10=Prove It All Night
TTITLE11=Intro To Racing In The Street
TTITLE12=Racing In The Street
TTITLE13=Ramrod
EXTD=
EXTT0=
EXTT1=
EXTT2=
EXTT3=
EXTT4=
EXTT5=
EXTT6=
EXTT7=
EXTT8=
EXTT9=
EXTT10=
EXTT11=
EXTT12=
EXTT13=
PLAYORDER=
